<?xml version="1.0" encoding="UTF-8"?>
<svg width="3264" height="1116" viewBox="0 0 3264 1116" xmlns="http://www.w3.org/2000/svg">
  <path id="1" d="M 75.055,392 C 78.576,358.843 92.083,329.673 115.729,304.164 C 128.473,290.417 141.976,280.527 164,268.809 C 178.811,260.929 186.410,256.819 189.500,255.016 C 194.467,252.118 204.243,246.809 208.500,244.698 C 210.700,243.607 215.650,240.824 219.500,238.513 C 227.868,233.490 251.775,220 252.309,220 C 252.516,220 265.019,213.123 280.093,204.717 C 295.167,196.311 309.075,188.625 311,187.636 C 312.925,186.647 316.300,184.859 318.500,183.664 C 329.605,177.630 340.872,171.442 344,169.659 C 345.925,168.562 349.300,166.670 351.500,165.455 C 353.700,164.240 362.250,159.432 370.500,154.769 C 426.445,123.150 433.217,120.621 474.750,115.853 C 482.645,114.947 487.355,114.950 495.250,115.869 C 510.767,117.675 527.182,120.144 529.464,121.015 C 530.584,121.442 533.525,122.347 536,123.026 C 545.348,125.590 564.957,134.302 572,139.020 C 573.375,139.941 578.965,143.057 584.423,145.944 C 589.881,148.831 596.060,152.275 598.154,153.597 C 600.248,154.919 602.149,156 602.379,156 C 602.609,156 617.266,164.108 634.949,174.018 C 652.632,183.928 675.065,196.374 684.800,201.676 C 694.535,206.978 703.989,212.153 705.809,213.175 C 710.715,215.929 722.995,222.953 727,225.296 C 728.925,226.422 733.875,229.131 738,231.315 C 742.125,233.499 746.694,236.122 748.154,237.143 C 749.614,238.164 751.120,239 751.500,239 C 751.880,239 753.386,239.831 754.846,240.847 C 756.306,241.863 759.975,244.042 763,245.689 C 766.025,247.336 773.768,251.680 780.206,255.342 C 786.644,259.004 792.087,262 792.300,262 C 792.513,262 798.453,265.150 805.500,269 C 812.547,272.850 818.506,276 818.743,276 C 818.980,276 824.197,279.328 830.337,283.395 C 856.366,300.637 879.784,330.286 889.264,358 C 892.238,366.693 894.208,373.866 896.131,383 C 898.166,392.667 898.158,704.920 896.122,716 C 892.119,737.787 884.084,758.425 872.955,775.500 C 870.087,779.900 867.461,783.725 867.120,784 C 866.779,784.275 864.708,786.750 862.517,789.500 C 857.562,795.719 848.379,804.973 840.500,811.688 C 832.780,818.267 821.358,825.344 790.660,842.565 C 762.761,858.216 757.583,861.137 754,863.247 C 749.643,865.813 727.722,878.166 722,881.279 C 718.975,882.925 713.575,885.842 710,887.762 C 706.425,889.682 703.050,891.586 702.500,891.993 C 701.950,892.400 699.250,893.993 696.500,895.534 C 693.750,897.075 689.700,899.371 687.500,900.635 C 685.300,901.899 681.925,903.779 680,904.813 C 678.075,905.847 673.350,908.496 669.500,910.699 C 665.650,912.902 660.475,915.832 658,917.212 C 646.200,923.790 636.867,929.137 623.500,936.979 C 620.785,938.572 595.862,952.703 573.965,965.066 C 563.397,971.032 544.683,980 542.799,980 C 542.029,980 540.972,980.374 540.450,980.831 C 539.927,981.288 536.575,982.462 533,983.441 C 529.425,984.420 525.600,985.584 524.500,986.027 C 521.187,987.362 511.195,988.909 498.500,990.050 C 482.056,991.529 452.180,989.170 445.764,985.888 C 444.809,985.399 443.362,985 442.549,985 C 440.833,985 432.857,982.467 428.500,980.537 C 426.850,979.806 423.025,978.173 420,976.907 C 413.935,974.370 412.710,973.717 392.500,962.241 C 375.191,952.412 361.941,944.771 347,936.002 C 340.675,932.290 332.350,927.535 328.500,925.435 C 324.650,923.335 321.275,921.366 321,921.059 C 320.725,920.752 318.700,919.553 316.500,918.396 C 314.300,917.239 303.500,911.143 292.500,904.849 C 281.500,898.555 261.360,887.127 247.744,879.453 C 234.128,871.779 221.303,864.506 219.244,863.290 C 217.185,862.074 214.150,860.322 212.500,859.396 C 209.625,857.783 177.265,839.393 170,835.244 C 168.075,834.145 163.644,831.614 160.154,829.622 C 156.664,827.630 153.637,826 153.429,826 C 153.221,826 148.201,822.745 142.275,818.766 C 129.637,810.282 112.234,793.571 103.142,781.190 C 90.601,764.112 81.189,743.004 77.984,724.768 C 77.378,721.320 76.380,716.700 75.765,714.500 C 74.437,709.750 73.765,404.154 75.055,392 ZM 522,647 C 522,702 522,757 522,812 C 522.303,815.917 522.606,819.833 522.909,823.750 C 525.245,853.928 534.498,872.032 551.708,880.092 C 557.266,882.695 558.965,883 567.930,883 C 576.572,883 579.075,882.587 586.221,879.983 C 609.701,871.426 629.299,853.249 647.270,823.360 C 658.959,803.920 665.213,790.437 674.425,764.829 C 676.933,757.856 678.261,757.173 682.587,760.630 C 689.255,765.959 696.476,770.873 700.859,773.067 C 707.406,776.344 721.769,780.003 727.993,779.979 C 734.735,779.953 748.283,776.091 756.440,771.868 C 769.941,764.879 785.397,749.305 794.517,733.500 C 810.774,705.326 818.860,680.676 824.036,643.500 C 825.869,630.334 825.985,623.129 825.981,522.500 C 825.980,486.833 825.977,451.167 825.976,415.500 C 825.182,412.311 824.389,409.121 823.595,405.932 C 819.491,389.447 812.601,378.160 802.809,371.879 C 797.720,368.615 797.199,368.500 787.521,368.501 C 778.671,368.502 776.974,368.796 773,371.020 C 771.500,371.860 770,372.699 768.500,373.539 C 768.313,419.199 768.126,464.859 767.939,510.519 C 767.351,654.116 767.053,663.891 762.855,677 C 760.538,684.236 756.765,691.408 753.591,694.611 C 745.202,703.079 731.496,701.472 721.377,690.834 C 715.779,684.949 712.744,679.259 709.151,667.918 C 705.327,655.847 705.138,652.018 704.520,574 C 704.080,518.403 703.922,514.157 702.122,509.282 C 698.308,498.953 692.111,494.082 682.717,494.031 C 667.690,493.950 654.733,508.078 648.586,531.246 C 647.724,534.494 646.862,537.743 646,540.991 C 645.977,561.243 645.954,581.494 645.931,601.746 C 645.853,669.996 645.176,686.031 641.611,704 C 636.366,730.440 632.218,743.365 622.519,763.500 C 612.794,783.689 603.533,794.582 595.137,795.708 C 589.841,796.418 585.869,794.721 583.441,790.708 C 581.549,787.581 581.487,783.738 581,638.083 C 580.636,529.278 580.196,488.565 579.382,488.294 C 577.911,487.804 559.642,501.585 554.388,507.147 C 544.752,517.349 535.380,533.804 529.980,550 C 523.221,570.273 522.222,582.420 522,647 Z" fill="#2CC4B6" stroke="none" />
  <path id="3" d="M 1046.667,458.667 C 1047.034,458.300 1065.671,458 1088.083,458 C 1101.666,458 1115.250,458 1128.833,458 C 1129.545,460.417 1130.256,462.833 1130.968,465.250 C 1132.142,469.237 1133.799,474.975 1134.651,478 C 1135.502,481.025 1137.232,486.650 1138.495,490.500 C 1139.758,494.350 1142.246,502.225 1144.025,508 C 1145.803,513.775 1148.283,521.650 1149.535,525.500 C 1150.787,529.350 1152.787,535.875 1153.980,540 C 1155.173,544.125 1156.501,548.625 1156.933,550 C 1157.365,551.375 1158.506,555.200 1159.469,558.500 C 1160.432,561.800 1161.785,566.075 1162.478,568 C 1163.171,569.925 1164.205,573.075 1164.777,575 C 1166.541,580.942 1175.113,608.273 1176.538,612.500 C 1177.280,614.700 1179.321,621.225 1181.073,627 C 1182.826,632.775 1185.326,640.862 1186.630,644.972 C 1187.934,649.082 1189,653.190 1189,654.100 C 1189,655.010 1189.675,656.315 1190.500,657 C 1191,657.415 1191.500,657.830 1192,658.245 C 1192.500,657.830 1193,657.415 1193.500,657 C 1194.325,656.315 1195,655.110 1195,654.323 C 1195,653.536 1197.268,646.279 1200.041,638.196 C 1202.814,630.113 1207.532,616.300 1210.527,607.500 C 1213.522,598.700 1218.021,585.650 1220.525,578.500 C 1223.029,571.350 1228.196,556.275 1232.007,545 C 1235.818,533.725 1243.498,511.225 1249.074,495 C 1254.650,478.775 1259.439,464.277 1259.715,462.782 C 1259.991,461.287 1260.784,459.594 1261.477,459.019 C 1262.314,458.325 1274.569,458.062 1298.009,458.237 C 1328.178,458.462 1333.393,458.717 1334.044,460 C 1334.462,460.825 1340.753,479.725 1348.024,502 C 1355.295,524.275 1361.639,543.400 1362.123,544.500 C 1362.907,546.282 1368.939,564.482 1392.533,636.250 C 1396.946,649.675 1399.833,657 1400.709,657 C 1401.454,657 1402.228,656.438 1402.431,655.750 C 1406.734,641.138 1425.754,581.838 1427.529,577.500 C 1428.204,575.850 1429.479,572.025 1430.363,569 C 1434.927,553.374 1451.664,502.289 1453.048,499.764 C 1453.571,498.809 1454,497.306 1454,496.424 C 1454,495.542 1455.315,490.923 1456.921,486.160 C 1458.527,481.397 1461.043,473.675 1462.512,469 C 1463.981,464.325 1465.647,459.938 1466.214,459.250 C 1467.007,458.288 1476.443,458 1507.154,458 C 1541.936,458 1547.138,458.196 1547.646,459.520 C 1548.235,461.054 1545.028,471.249 1542.414,476.154 C 1541.636,477.614 1541,479.886 1541,481.204 C 1541,482.522 1540.615,484.028 1540.145,484.550 C 1539.675,485.073 1538.553,487.824 1537.652,490.666 C 1536.751,493.508 1535.483,497.108 1534.835,498.666 C 1534.187,500.224 1533.115,503.300 1532.453,505.500 C 1531.791,507.700 1530.015,512.875 1528.506,517 C 1526.997,521.125 1522.929,532.600 1519.468,542.500 C 1513.520,559.511 1508.506,573.596 1502.737,589.500 C 1501.340,593.350 1499.185,599.425 1497.946,603 C 1496.707,606.575 1495.088,610.918 1494.347,612.651 C 1493.606,614.384 1493,616.140 1493,616.554 C 1493,617.378 1483.287,644.905 1479.611,654.500 C 1477.052,661.178 1477.243,660.637 1468.877,685 C 1460.549,709.253 1459.033,713.690 1451.134,736.907 C 1447.316,748.131 1443.538,757.678 1442.740,758.125 C 1441.647,758.737 1363.193,758.733 1362.329,758.121 C 1362.235,758.055 1361.851,756.537 1361.474,754.750 C 1361.097,752.963 1360.203,750.150 1359.487,748.500 C 1358.771,746.850 1353.428,731.100 1347.614,713.500 C 1334.984,675.271 1316.798,621.761 1307.509,595.500 C 1303.813,585.050 1300.118,574.332 1299.299,571.682 C 1297.943,567.296 1295.757,564.909 1294.369,566.297 C 1294.070,566.596 1293.450,568.340 1292.991,570.171 C 1292.532,572.002 1290.724,577.325 1288.972,582 C 1287.220,586.675 1285.428,591.850 1284.990,593.500 C 1284.210,596.440 1275.218,622.097 1272.548,629 C 1271.803,630.925 1269.551,637.675 1267.542,644 C 1265.533,650.325 1263.502,656.400 1263.028,657.500 C 1262.554,658.600 1261.951,660.400 1261.687,661.500 C 1261.423,662.600 1258.859,670.025 1255.989,678 C 1253.119,685.975 1247.700,701.500 1243.949,712.500 C 1230.482,751.987 1228.907,756.407 1227.839,757.694 C 1226.982,758.727 1218.750,759 1188.488,759 C 1153.491,759 1150.046,758.850 1148.172,757.250 C 1146.928,756.188 1144.136,749.604 1141.067,740.500 C 1138.286,732.250 1134.605,721.450 1132.887,716.500 C 1131.169,711.550 1126.656,698.275 1122.857,687 C 1119.058,675.725 1115.578,665.600 1115.124,664.500 C 1114.670,663.400 1113.746,660.925 1113.070,659 C 1112.394,657.075 1110.044,650.550 1107.848,644.500 C 1105.652,638.450 1100.930,624.500 1097.353,613.500 C 1093.776,602.500 1090.247,592.150 1089.511,590.500 C 1087.143,585.193 1083.214,573.955 1076.925,554.500 C 1073.547,544.050 1069.691,532.350 1068.356,528.500 C 1067.021,524.650 1063.894,515.425 1061.406,508 C 1058.918,500.575 1056.491,493.600 1056.012,492.500 C 1055.533,491.400 1053.699,486 1051.936,480.500 C 1050.172,475 1048.116,469.022 1047.365,467.216 C 1045.903,463.698 1045.581,459.753 1046.667,458.667 Z" fill="#FFFFFF" stroke="none" />
  <path id="3" d="M 1717.762,330.556 C 1717.935,325.087 1718.565,320.024 1719.161,319.306 C 1720.671,317.486 1794.985,317.385 1796.800,319.200 C 1797.721,320.121 1798,351.022 1798,452.200 C 1798,561.510 1798.228,584 1799.336,584 C 1800.071,584 1805.576,578.487 1811.569,571.750 C 1817.562,565.013 1826.297,555.434 1830.982,550.465 C 1839.864,541.043 1846.750,533.598 1855.933,523.484 C 1858.921,520.193 1865.671,512.997 1870.933,507.494 C 1876.195,501.991 1886.125,491.440 1893,484.048 C 1899.875,476.656 1908.226,467.771 1911.558,464.304 C 1913.577,462.203 1915.597,460.101 1917.617,458 C 1932.858,458 1948.099,458 1963.340,458 C 2003.097,458 2009.138,458.196 2009.639,459.503 C 2010.024,460.508 2004.305,467.222 1992.390,479.753 C 1982.586,490.064 1971.190,502.100 1967.066,506.500 C 1962.942,510.900 1954.153,520.130 1947.534,527.012 C 1940.915,533.894 1929.837,545.640 1922.915,553.116 C 1915.993,560.591 1908.464,568.393 1906.186,570.451 C 1903.907,572.509 1901.097,575.725 1899.940,577.597 C 1899.239,578.731 1898.538,579.866 1897.837,581 C 1898.592,582.250 1899.348,583.500 1900.103,584.750 C 1901.349,586.812 1903.884,590.525 1905.734,593 C 1909.170,597.596 1922.301,615.761 1925.004,619.657 C 1926.818,622.272 1956.437,663.164 1970.412,682.347 C 1975.960,689.963 1981.175,697.159 1982,698.339 C 1997.923,721.114 2024.945,751.255 2041,764.148 C 2061.628,780.714 2087.986,793.152 2115.500,799.304 C 2130.321,802.618 2138.906,803.498 2155.750,803.431 C 2165.238,803.393 2173,803.662 2173,804.029 C 2173,804.964 2166.603,807.593 2159.500,809.578 C 2156.200,810.500 2151.508,811.872 2149.072,812.627 C 2146.637,813.382 2143.403,814 2141.887,814 C 2140.371,814 2137.863,814.487 2136.315,815.082 C 2134.767,815.677 2130.125,816.563 2126,817.051 C 2121.875,817.539 2114.450,818.448 2109.500,819.073 C 2099.179,820.375 2065.365,819.740 2054.500,818.039 C 2046.476,816.783 2033.904,814.263 2029.500,813.029 C 2009.585,807.447 2003.674,805.186 1987.469,796.948 C 1975.393,790.809 1968.660,786.587 1956.500,777.528 C 1947.893,771.116 1930.408,754.238 1922.284,744.500 C 1914.957,735.717 1888.938,701.256 1872.724,678.859 C 1850.060,647.552 1844.919,641 1843.020,641 C 1840.963,641 1819.127,662.781 1797.916,685.992 C 1780.538,705.008 1746.363,739.026 1738.500,745.133 C 1728.500,752.900 1721.229,757.302 1719.497,756.637 C 1717.728,755.958 1717.862,772.802 1717.620,520 C 1717.525,421.275 1717.589,336.025 1717.762,330.556 Z" fill="#FFFFFF" stroke="none" />
  <path id="2" d="M 522,647 C 522.222,582.420 523.221,570.273 529.980,550 C 535.380,533.804 544.752,517.349 554.388,507.147 C 559.642,501.585 577.911,487.804 579.382,488.294 C 580.196,488.565 580.636,529.278 581,638.083 C 581.487,783.738 581.549,787.581 583.441,790.708 C 585.869,794.721 589.841,796.418 595.137,795.708 C 603.533,794.582 612.794,783.689 622.519,763.500 C 632.218,743.365 636.366,730.440 641.611,704 C 645.176,686.031 645.853,669.996 645.931,601.746 C 645.954,581.494 645.977,561.243 646,540.991 C 646.862,537.743 647.724,534.494 648.586,531.246 C 654.733,508.078 667.690,493.950 682.717,494.031 C 692.111,494.082 698.308,498.953 702.122,509.282 C 703.922,514.157 704.080,518.403 704.520,574 C 705.138,652.018 705.327,655.847 709.151,667.918 C 712.744,679.259 715.779,684.949 721.377,690.834 C 731.496,701.472 745.202,703.079 753.591,694.611 C 756.765,691.408 760.538,684.236 762.855,677 C 767.053,663.891 767.351,654.116 767.939,510.519 C 768.126,464.859 768.313,419.199 768.500,373.539 C 770,372.699 771.500,371.860 773,371.020 C 776.974,368.796 778.671,368.502 787.521,368.501 C 797.199,368.500 797.720,368.615 802.809,371.879 C 812.601,378.160 819.491,389.447 823.595,405.932 C 824.389,409.121 825.182,412.311 825.976,415.500 C 825.977,451.167 825.980,486.833 825.981,522.500 C 825.985,623.129 825.869,630.334 824.036,643.500 C 818.860,680.676 810.774,705.326 794.517,733.500 C 785.397,749.305 769.941,764.879 756.440,771.868 C 748.283,776.091 734.735,779.953 727.993,779.979 C 721.769,780.003 707.406,776.344 700.859,773.067 C 696.476,770.873 689.255,765.959 682.587,760.630 C 678.261,757.173 676.933,757.856 674.425,764.829 C 665.213,790.437 658.959,803.920 647.270,823.360 C 629.299,853.249 609.701,871.426 586.221,879.983 C 579.075,882.587 576.572,883 567.930,883 C 558.965,883 557.266,882.695 551.708,880.092 C 534.498,872.032 525.245,853.928 522.909,823.750 C 522.606,819.833 522.303,815.917 522,812 C 522,757 522,702 522,647 Z" fill="#0A1A2F" stroke="none" />
  <path id="3" d="M 2244.582,601 C 2244.807,599.075 2245.473,593.225 2246.061,588 C 2249.923,553.708 2266.178,519.117 2289.500,495.565 C 2307.789,477.095 2331.003,463.719 2356.182,457.141 C 2389.091,448.544 2427.763,451.372 2456.526,464.480 C 2475.003,472.900 2497.752,492.646 2509.407,510.381 C 2528.349,539.203 2538.696,575.018 2539.313,613.906 C 2539.451,622.618 2539.144,626.094 2538.127,627.331 C 2536.860,628.872 2527.956,629 2422,629 C 2328.566,629 2307.043,629.244 2306.157,630.311 C 2304.847,631.890 2308.789,652.464 2312.005,660.833 C 2321.362,685.181 2337.759,703.256 2359.294,712.963 C 2378.416,721.583 2406.757,723.382 2429.616,717.428 C 2448.089,712.616 2468.650,695.750 2479.511,676.500 C 2483.186,669.987 2485.913,667 2488.184,667 C 2489.194,667 2499.871,672.011 2511.911,678.135 C 2527.151,685.886 2534.114,689.956 2534.831,691.529 C 2537.151,696.620 2523.045,718.991 2508.024,734.045 C 2482.781,759.343 2451.820,772.894 2412.174,775.997 C 2374.169,778.972 2340.337,770.666 2311,751.158 C 2299.517,743.522 2279.939,723.970 2272.611,712.818 C 2258.455,691.276 2250.101,669.447 2246.466,644.500 C 2244.995,634.402 2243.828,607.461 2244.582,601 ZM 2471.901,560.518 C 2463.670,535.781 2447.102,518.955 2422.500,510.349 C 2414.965,507.713 2413.511,507.549 2397.500,507.526 C 2383.900,507.506 2379.100,507.879 2373.500,509.393 C 2343.054,517.622 2320.488,538.131 2311.964,565.319 C 2309.597,572.868 2309.479,576.586 2311.582,577.393 C 2313.649,578.186 2471.351,578.186 2473.418,577.393 C 2475.820,576.471 2475.306,570.750 2471.901,560.518 Z" fill="#FFFFFF" stroke="none" />
  <path id="3" d="M 2907.556,659.160 C 2914.477,621.256 2939.380,595.998 2980.579,585.095 C 2996.057,580.999 3000.497,580.698 3051.810,580.271 C 3096.215,579.902 3102.190,579.670 3102.718,578.293 C 3103.520,576.205 3100.247,559.105 3097.495,551 C 3088.063,523.221 3070.814,509.541 3042.467,507.357 C 3025.694,506.065 3006.128,510.132 2994.166,517.399 C 2986.986,521.761 2977.636,531.434 2972.074,540.254 C 2969.317,544.627 2966.971,547.220 2965.420,547.609 C 2963.188,548.169 2946.250,542.215 2923.245,532.784 C 2912.243,528.274 2912.277,526.855 2923.796,509.500 C 2931.464,497.948 2947.001,481.828 2957.500,474.533 C 2970.948,465.189 2989.349,457.827 3008,454.329 C 3020.933,451.903 3050.558,451.922 3064,454.365 C 3114.676,463.574 3145.531,492.839 3158.497,543.989 C 3163.734,564.648 3164,570.817 3164,671.609 C 3164,761.824 3163.939,764.853 3162.090,767.139 C 3160.217,769.454 3159.796,769.507 3140.340,769.832 C 3129.428,770.014 3118.099,769.864 3115.165,769.499 C 3110.294,768.892 3109.706,768.539 3108.415,765.449 C 3107.637,763.587 3107,759.406 3107,756.157 C 3107,748.965 3106.088,744 3104.767,744 C 3104.226,744 3101.389,746.306 3098.462,749.125 C 3076.855,769.935 3046.098,779.112 3008.357,776.010 C 2963.114,772.291 2932.696,755.438 2916.276,724.994 C 2907.282,708.317 2903.624,680.698 2907.556,659.160 ZM 3063.250,632.020 C 3013.060,632.044 3004.364,632.999 2988.690,640.216 C 2972.841,647.513 2963.951,665.826 2966.833,685.244 C 2969.458,702.928 2980.924,714.446 3002,720.569 C 3011.865,723.435 3038.297,723.179 3049.902,720.105 C 3068.230,715.251 3083.433,703.979 3092.528,688.500 C 3100.684,674.620 3104.945,658.281 3104.982,640.750 C 3104.988,637.833 3104.994,634.917 3105,632 C 3091.083,632.007 3077.167,632.013 3063.250,632.020 Z" fill="#FFFFFF" stroke="none" />
  <path id="3" d="M 2591.418,461.441 C 2592.731,459.643 2594.414,459.476 2614.168,459.174 C 2625.901,458.995 2637.416,459.136 2639.757,459.487 C 2645.580,460.360 2646.646,462.806 2647.193,476.549 C 2647.435,482.626 2647.975,488.150 2648.393,488.826 C 2648.916,489.673 2651.539,487.818 2656.826,482.862 C 2673.189,467.525 2692.308,458.001 2715,453.882 C 2726.211,451.847 2752.235,452.119 2764.500,454.400 C 2774.721,456.300 2791.234,461.561 2798.465,465.221 C 2828.488,480.417 2848.808,510.471 2856.034,550.368 C 2859.398,568.940 2860.105,593.759 2859.794,682.215 C 2859.517,761.014 2859.395,766.034 2857.715,767.715 C 2856.093,769.337 2853.561,769.500 2830.071,769.500 C 2806.358,769.500 2804.042,769.348 2802.176,767.659 C 2800.164,765.839 2800.135,764.780 2799.686,675.659 C 2799.210,581.259 2799.062,577.911 2794.561,559.500 C 2793.620,555.650 2790.606,547.910 2787.864,542.300 C 2779.544,525.278 2769.895,517.444 2750.228,511.741 C 2743.699,509.848 2740.094,509.500 2727,509.502 C 2713.536,509.504 2710.518,509.812 2704.025,511.849 C 2675.204,520.890 2658.832,541.788 2651.808,578.500 C 2649.789,589.053 2649.688,593.038 2649.338,676.500 C 2649.137,724.350 2648.751,764.492 2648.479,765.705 C 2647.695,769.202 2642.379,769.988 2619.493,769.994 C 2598.831,769.999 2592.430,769.279 2590.836,766.768 C 2590.393,766.070 2590.023,697.523 2590.015,614.441 C 2590.002,485.618 2590.209,463.096 2591.418,461.441 Z" fill="#FFFFFF" stroke="none" />
  <path id="3" d="M 2060.912,461.861 C 2061.549,461.074 2062.186,460.287 2062.823,459.500 C 2071.484,459.500 2080.146,459.500 2088.807,459.500 C 2112.955,459.500 2114.939,459.635 2116.895,461.405 C 2118.876,463.198 2119,464.301 2119,480.096 C 2119,490.636 2119.387,497.121 2120.040,497.525 C 2120.612,497.878 2124.269,495.158 2128.167,491.481 C 2148.354,472.438 2177.752,460.744 2211.388,458.380 C 2225.621,457.379 2225,456.101 2225,486.429 C 2225,507.294 2224.771,511.086 2223.430,512.427 C 2221.462,514.395 2219.719,514.739 2208.266,515.424 C 2187.484,516.666 2166.065,523.150 2152.121,532.420 C 2143.231,538.330 2131.842,550.389 2128.043,557.915 C 2119.093,575.645 2119.013,576.669 2119.006,673.750 C 2119.003,718.987 2118.766,756 2118.480,756 C 2115.529,756 2079.018,735.073 2066.250,726.064 C 2063.833,724.359 2061.417,722.653 2059,720.948 C 2059,678.160 2059,635.373 2059,592.585 C 2059,467.689 2059.052,464.158 2060.912,461.861 Z" fill="#FFFFFF" stroke="none" />
  <path id="3" d="M 1574,553.500 C 1574.890,538.070 1576.727,531.484 1584.679,515.211 C 1594.558,494.995 1606.751,481.443 1625.273,470.095 C 1633.232,465.218 1652.431,457.567 1654.609,458.403 C 1655.789,458.856 1656,481.661 1656,608.415 C 1656,658.241 1656,708.067 1656,757.893 C 1642.750,757.994 1629.500,758.096 1616.250,758.197 C 1583.505,758.447 1576.195,758.255 1574.769,757.112 C 1573.148,755.812 1573.047,749.691 1573.173,660.612 C 1573.247,608.300 1573.619,560.100 1574,553.500 Z" fill="#FFFFFF" stroke="none" />
  <path id="3" d="M 1567.799,358.487 C 1571.769,347.006 1581.371,335.379 1590.850,330.576 C 1599.935,325.972 1606.473,324.686 1617.838,325.266 C 1627.574,325.763 1628.811,326.075 1636.875,330.069 C 1651.732,337.428 1660.232,348.530 1663.544,364.906 C 1666.097,377.525 1664.713,386.737 1658.396,399.204 C 1649.492,416.775 1625.301,426.645 1604.064,421.370 C 1585.696,416.807 1571.803,403.859 1567.484,387.276 C 1565.446,379.453 1565.606,364.828 1567.799,358.487 Z" fill="#FFFFFF" stroke="none" />
</svg>
