<?xml version="1.0" encoding="UTF-8"?>
<svg width="3264" height="1011" viewBox="0 0 3264 1011" xmlns="http://www.w3.org/2000/svg">
  <path id="10" d="M 111.011,345.500 C 111.489,338.900 112.333,331.475 112.887,329 C 113.441,326.525 114.179,322.475 114.525,320 C 116.376,306.764 125.784,285.008 136.696,268.733 C 144.713,256.776 162.498,238.441 173.500,230.791 C 179.955,226.302 217.232,205 218.631,205 C 218.835,205 230.364,198.631 244.251,190.847 C 258.138,183.063 277.375,172.342 287,167.022 C 296.625,161.702 306.750,156.086 309.500,154.541 C 312.250,152.996 316.975,150.388 320,148.745 C 323.025,147.102 333.900,141.087 344.167,135.379 C 354.434,129.671 363.062,125 363.340,125 C 363.618,125 369.843,121.556 377.173,117.348 C 384.503,113.140 391.850,109.019 393.500,108.191 C 395.150,107.363 401,104.125 406.500,100.995 C 456.747,72.402 472.147,66.899 506,65.442 C 540.823,63.944 569.778,70.322 596.500,85.376 C 598.700,86.615 603.650,89.351 607.500,91.456 C 611.350,93.561 620.350,98.539 627.500,102.519 C 634.650,106.499 642.525,110.872 645,112.237 C 655.758,118.169 680.630,132.089 682,132.944 C 682.825,133.459 686.057,135.221 689.182,136.861 C 697.540,141.246 741.066,165.461 751.500,171.531 C 756.450,174.410 762.975,178.111 766,179.754 C 777.292,185.887 813.519,206.407 814,206.943 C 814.275,207.249 817.200,208.823 820.500,210.439 C 829.480,214.837 850.772,226.750 856.805,230.750 C 864.892,236.113 880.085,250.037 886.753,258.198 C 907.325,283.375 918.785,310.701 921.060,340 C 922.250,355.328 922.195,620.239 920.998,640 C 919.988,656.674 917.446,669.128 912.085,683.681 C 899.338,718.282 873.353,748.026 840,766.196 C 829.083,772.143 824.653,774.628 821,776.852 C 819.075,778.024 816.825,779.302 816,779.691 C 815.175,780.080 811.800,781.929 808.500,783.798 C 805.200,785.667 800.247,788.454 797.494,789.992 C 794.741,791.530 785.516,796.812 776.994,801.729 C 768.472,806.646 757.900,812.609 753.500,814.981 C 749.100,817.353 736.950,824.131 726.500,830.043 C 716.050,835.955 695.575,847.514 681,855.728 C 666.425,863.942 643.250,877.107 629.500,884.984 C 583.606,911.275 566.604,919.021 548,922.115 C 544.975,922.618 539.575,923.519 536,924.115 C 524.103,926.100 483.578,924.013 476.500,921.050 C 475.400,920.590 470.661,919.019 465.969,917.560 C 457.406,914.897 443.122,908.309 431,901.433 C 427.425,899.405 422.700,896.746 420.500,895.524 C 418.300,894.302 408.175,888.438 398,882.493 C 387.825,876.548 371.850,867.322 362.500,861.989 C 353.150,856.656 339.425,848.805 332,844.541 C 324.575,840.277 316.025,835.420 313,833.748 C 304.143,828.851 269.948,809.500 251,798.662 C 241.375,793.157 223.150,782.831 210.500,775.718 C 181.369,759.337 170.360,751.978 159.022,741.305 C 138.390,721.883 125.082,700.687 117.079,674.500 C 114.829,667.139 113.563,659.983 112.058,646.131 C 110.852,635.025 109.897,360.891 111.011,345.500 ZM 848.912,350.716 C 842.531,324.333 825.641,308.891 807.707,313.043 C 800.292,314.760 797.504,315.882 795.105,318.117 C 794.403,318.771 793.702,319.424 793,320.078 C 792.995,364.148 792.989,408.219 792.984,452.289 C 792.975,530.277 792.564,589.379 791.983,596.397 C 790.091,619.233 783.617,633.588 773.167,638.121 C 767.610,640.531 764.317,640.491 758.333,637.940 C 745.420,632.436 735.440,615.133 732.879,593.812 C 732.330,589.241 731.667,557.150 731.406,522.500 C 731.006,469.390 730.685,458.564 729.355,453.537 C 726.344,442.155 719.846,436.797 709.156,436.879 C 703.708,436.921 701.868,437.434 697.217,440.214 C 694.193,442.021 689.921,445.750 687.725,448.500 C 683.088,454.306 677.593,465.815 675.887,473.292 C 675.083,476.817 674.454,499.500 673.942,543.500 C 673.117,614.353 672.449,627.184 668.606,646 C 663.678,670.127 659.692,682.344 650.460,701.623 C 641.015,721.347 631.986,732.150 623.790,733.535 C 618.021,734.510 614.491,732.630 611.788,727.144 C 611.025,725.596 610.263,724.048 609.500,722.500 C 609.413,673.917 609.327,625.333 609.240,576.750 C 609.049,469.375 608.683,431 607.852,431 C 605.941,431 591.039,442.193 585.220,448 C 577.878,455.327 570.830,465.518 565.890,475.952 C 560.594,487.138 560.607,487.104 557.567,497.044 C 552.304,514.249 552.057,520.607 551.808,645.501 C 551.603,748.062 551.757,761.710 553.232,771.689 C 554.141,777.843 555.524,784.143 556.303,785.689 C 557.082,787.235 558.043,789.850 558.440,791.500 C 559.519,795.989 565.308,804.954 570.185,809.689 C 572.558,811.993 577.425,815.255 581,816.938 C 586.770,819.655 588.527,819.998 596.648,819.999 C 604.429,820 607.119,819.522 614.648,816.801 C 632.276,810.430 648.355,798.125 661.386,781.032 C 677.863,759.419 689.531,736.876 702.422,701.750 C 703.440,698.976 704.788,697 705.662,697 C 706.485,697 709.710,699.196 712.829,701.880 C 723.947,711.448 737.678,716.981 752.199,717.744 C 774.160,718.899 799.535,703.418 815.840,678.917 C 823.033,668.108 832.659,648.812 836.998,636.500 C 841.464,623.829 846.699,601.023 849.023,584.115 C 850.896,570.493 850.994,564.134 850.897,464.115 C 850.800,364.316 850.691,358.072 848.912,350.716 Z" fill="#0A1A2F" stroke="none" />
  <path id="10" d="M 1068.254,402.204 C 1070.248,400.549 1147.411,400.562 1148.693,402.217 C 1149.240,402.923 1150.467,406.425 1151.419,410 C 1152.371,413.575 1153.563,417.850 1154.067,419.500 C 1155.208,423.234 1163.666,450.081 1165.408,455.500 C 1167.108,460.788 1168.230,464.450 1171.993,477 C 1173.725,482.775 1175.715,489.300 1176.416,491.500 C 1177.117,493.700 1178.488,498.200 1179.462,501.500 C 1180.436,504.800 1181.592,508.400 1182.032,509.500 C 1182.472,510.600 1184.262,516.225 1186.010,522 C 1190.634,537.282 1195.027,551.205 1195.948,553.500 C 1196.389,554.600 1197.517,558.200 1198.453,561.500 C 1199.389,564.800 1201.884,573.125 1203.997,580 C 1206.110,586.875 1208.116,593.767 1208.455,595.316 C 1208.866,597.193 1209.608,598.027 1210.679,597.816 C 1212.655,597.427 1213.284,596.235 1215.867,588 C 1216.988,584.425 1221.799,570.250 1226.558,556.500 C 1231.317,542.750 1235.800,529.700 1236.521,527.500 C 1237.242,525.300 1240.322,516.402 1243.365,507.727 C 1246.408,499.052 1252.475,481.277 1256.849,468.227 C 1261.222,455.177 1265.238,443.375 1265.774,442 C 1266.310,440.625 1267.518,437.025 1268.459,434 C 1269.400,430.975 1270.544,427.600 1271.001,426.500 C 1271.458,425.400 1273.474,419.558 1275.482,413.518 C 1277.490,407.478 1279.665,402.198 1280.316,401.784 C 1280.967,401.370 1296.656,401.023 1315.179,401.015 C 1344.476,401.002 1349.062,401.204 1350.429,402.571 C 1351.293,403.435 1351.998,404.898 1351.995,405.821 C 1351.990,407.648 1354.461,415.712 1356.494,420.500 C 1357.194,422.150 1368.915,457.250 1382.540,498.500 C 1396.165,539.750 1409.036,578.675 1411.142,585 C 1414.082,593.831 1415.376,596.500 1416.721,596.500 C 1417.698,596.500 1418.615,595.616 1418.794,594.500 C 1418.971,593.400 1420.401,588.450 1421.972,583.500 C 1423.543,578.550 1427.387,566.400 1430.514,556.500 C 1433.641,546.600 1437.980,533.325 1440.156,527 C 1444.576,514.154 1444.579,514.144 1453.060,487 C 1456.411,476.275 1460.003,465.250 1461.041,462.500 C 1462.079,459.750 1463.231,456.150 1463.602,454.500 C 1463.972,452.850 1464.601,451.050 1465,450.500 C 1465.398,449.950 1466.520,446.800 1467.491,443.500 C 1468.462,440.200 1471.262,431.200 1473.711,423.500 C 1476.161,415.800 1478.613,408.034 1479.162,406.242 C 1479.711,404.450 1480.994,402.538 1482.014,401.992 C 1484.528,400.646 1557.489,400.656 1560.004,402.002 C 1561.812,402.970 1561.792,403.252 1559.405,410.252 C 1558.045,414.238 1556.532,418.400 1556.043,419.500 C 1555.553,420.600 1554.243,424.425 1553.132,428 C 1552.021,431.575 1549.032,440.350 1546.490,447.500 C 1543.948,454.650 1539.440,467.475 1536.472,476 C 1533.504,484.525 1529.689,495.325 1527.993,500 C 1526.297,504.675 1523.997,511.200 1522.883,514.500 C 1521.769,517.800 1520.432,521.400 1519.913,522.500 C 1519.394,523.600 1518.559,525.850 1518.058,527.500 C 1517.557,529.150 1515.744,534.325 1514.028,539 C 1512.312,543.675 1509.617,551.325 1508.039,556 C 1505.456,563.650 1494.827,593.270 1493.326,597 C 1491.784,600.832 1485.808,617.822 1485.060,620.500 C 1484.599,622.150 1481.449,631.375 1478.059,641 C 1474.669,650.625 1469.003,667.004 1465.467,677.398 C 1461.931,687.792 1458.841,696.493 1458.600,696.734 C 1457.855,697.479 1379.560,696.965 1378.899,696.211 C 1378.557,695.820 1377.793,693.700 1377.201,691.500 C 1376.609,689.300 1372.456,676.700 1367.971,663.500 C 1363.486,650.300 1358.752,636.125 1357.450,632 C 1356.148,627.875 1353.477,620 1351.513,614.500 C 1349.549,609 1344.375,593.925 1340.016,581 C 1335.657,568.075 1328.888,548.500 1324.974,537.500 C 1321.060,526.500 1317.485,516.025 1317.028,514.222 C 1316.089,510.514 1314.298,507.989 1312.628,508.022 C 1312.008,508.034 1308.497,516.922 1304.826,527.772 C 1295.332,555.836 1274.736,615.945 1271.168,626 C 1269.509,630.675 1263.697,647.550 1258.252,663.500 C 1252.807,679.450 1247.807,693.513 1247.141,694.750 C 1246.737,695.500 1246.334,696.250 1245.930,697 C 1232.982,697 1220.034,697 1207.087,697 C 1164.920,697 1166.894,697.265 1165.009,691.347 C 1163.791,687.523 1156.232,665.447 1144.516,631.500 C 1139.201,616.100 1134.506,602.140 1134.083,600.477 C 1133.660,598.814 1132.774,596.448 1132.117,595.219 C 1130.757,592.678 1124.275,575.034 1123.035,570.500 C 1122.584,568.850 1121.269,564.800 1120.114,561.500 C 1118.958,558.200 1116.418,550.550 1114.470,544.500 C 1112.521,538.450 1110.490,532.600 1109.955,531.500 C 1108.703,528.927 1096.051,492.452 1095.040,488.500 C 1094.618,486.850 1091.468,477.400 1088.041,467.500 C 1084.614,457.600 1081.432,448.150 1080.970,446.500 C 1080.508,444.850 1077.176,434.953 1073.565,424.506 C 1069.954,414.060 1067,405.003 1067,404.379 C 1067,403.755 1067.564,402.777 1068.254,402.204 Z" fill="#0A1A2F" stroke="none" />
  <path id="10" d="M 1729.018,266.250 C 1729.324,265.500 1729.630,264.750 1729.936,264 C 1742.573,264 1755.208,264 1767.845,264 C 1800.337,264 1805.933,264.214 1807.001,265.501 C 1807.989,266.691 1808.114,293.584 1807.606,395.251 C 1807.181,480.250 1807.302,524.006 1807.966,525 C 1809.002,526.552 1810.559,525.029 1829.086,504.336 C 1839.126,493.123 1866.428,463.640 1878.006,451.508 C 1883.784,445.453 1894.584,434.014 1902.006,426.086 C 1909.428,418.158 1917.525,409.523 1920,406.897 C 1921.500,405.305 1923,403.714 1924.500,402.122 C 1932.667,402.070 1940.833,402.020 1949,401.968 C 2001.098,401.639 2016,401.926 2016,403.260 C 2016,403.953 2012.128,408.566 2007.395,413.510 C 2002.662,418.454 1997.424,424.075 1995.756,426 C 1993.002,429.178 1969.390,454.041 1942.074,482.526 C 1936.259,488.590 1929.745,495.565 1927.600,498.026 C 1925.455,500.487 1919.886,506.390 1915.225,511.145 C 1909.030,517.465 1906.750,520.483 1906.750,522.363 C 1906.750,523.958 1909.213,528.269 1913.237,533.717 C 1916.805,538.548 1921.250,544.750 1923.115,547.500 C 1924.980,550.250 1929.028,555.875 1932.110,560 C 1940.890,571.751 1964.135,603.815 1969.081,611 C 1973.532,617.465 1977.603,623.039 1993.918,645 C 2009.703,666.249 2026.718,685.144 2042,698.394 C 2052.913,707.856 2062.090,714.099 2075.242,721.005 C 2090.441,728.986 2099.569,732.301 2119.500,737.078 C 2131.345,739.917 2141.742,740.965 2158.250,740.982 C 2168.012,740.992 2176,741.382 2176,741.848 C 2176,743.270 2164.524,747.537 2155.500,749.470 C 2153.850,749.824 2149.575,750.771 2146,751.575 C 2127.696,755.692 2118.809,756.500 2092,756.488 C 2058.909,756.473 2051.081,755.418 2024,747.332 C 1988.314,736.676 1952.030,711.166 1926.044,678.462 C 1918.230,668.629 1892.959,635.193 1886.392,626 C 1885.017,624.075 1882.229,620.232 1880.196,617.459 C 1878.163,614.686 1872.450,606.847 1867.500,600.038 C 1862.550,593.229 1857.216,586.160 1855.646,584.329 C 1852.644,580.827 1849.643,580.042 1848.300,582.409 C 1847.860,583.184 1841.425,590.070 1834,597.712 C 1826.575,605.354 1815.570,616.982 1809.544,623.553 C 1769.802,666.888 1733.737,699.137 1729.620,695.021 C 1728.200,693.602 1727.605,269.715 1729.018,266.250 Z" fill="#0A1A2F" stroke="none" />
  <path id="2" d="M 848.912,350.716 C 850.691,358.072 850.800,364.316 850.897,464.115 C 850.994,564.134 850.896,570.493 849.023,584.115 C 846.699,601.023 841.464,623.829 836.998,636.500 C 832.659,648.812 823.033,668.108 815.840,678.917 C 799.535,703.418 774.160,718.899 752.199,717.744 C 737.678,716.981 723.947,711.448 712.829,701.880 C 709.710,699.196 706.485,697 705.662,697 C 704.788,697 703.440,698.976 702.422,701.750 C 689.531,736.876 677.863,759.419 661.386,781.032 C 648.355,798.125 632.276,810.430 614.648,816.801 C 607.119,819.522 604.429,820 596.648,819.999 C 588.527,819.998 586.770,819.655 581,816.938 C 577.425,815.255 572.558,811.993 570.185,809.689 C 565.308,804.954 559.519,795.989 558.440,791.500 C 558.043,789.850 557.082,787.235 556.303,785.689 C 555.524,784.143 554.141,777.843 553.232,771.689 C 551.757,761.710 551.603,748.062 551.808,645.501 C 552.057,520.607 552.304,514.249 557.567,497.044 C 560.607,487.104 560.594,487.138 565.890,475.952 C 570.830,465.518 577.878,455.327 585.220,448 C 591.039,442.193 605.941,431 607.852,431 C 608.683,431 609.049,469.375 609.240,576.750 C 609.327,625.333 609.413,673.917 609.500,722.500 C 610.263,724.048 611.025,725.596 611.788,727.144 C 614.491,732.630 618.021,734.510 623.790,733.535 C 631.986,732.150 641.015,721.347 650.460,701.623 C 659.692,682.344 663.678,670.127 668.606,646 C 672.449,627.184 673.117,614.353 673.942,543.500 C 674.454,499.500 675.083,476.817 675.887,473.292 C 677.593,465.815 683.088,454.306 687.725,448.500 C 689.921,445.750 694.193,442.021 697.217,440.214 C 701.868,437.434 703.708,436.921 709.156,436.879 C 719.846,436.797 726.344,442.155 729.355,453.537 C 730.685,458.564 731.006,469.390 731.406,522.500 C 731.667,557.150 732.330,589.241 732.879,593.812 C 735.440,615.133 745.420,632.436 758.333,637.940 C 764.317,640.491 767.610,640.531 773.167,638.121 C 783.617,633.588 790.091,619.233 791.983,596.397 C 792.564,589.379 792.975,530.277 792.984,452.289 C 792.989,408.219 792.995,364.148 793,320.078 C 793.702,319.424 794.403,318.771 795.105,318.117 C 797.504,315.882 800.292,314.760 807.707,313.043 C 825.641,308.891 842.531,324.333 848.912,350.716 Z" fill="#FFFFFF" stroke="none" />
  <path id="10" d="M 2248.049,531 C 2255.449,470.913 2292.891,422.196 2345.500,404.204 C 2363.507,398.045 2373.251,396.580 2396.500,396.538 C 2419.304,396.496 2429.502,397.991 2445.419,403.708 C 2483.507,417.387 2513.801,450.967 2527.827,495.052 C 2535.489,519.136 2540.045,562.329 2535.652,569.239 C 2535.568,569.371 2484.200,569.708 2421.500,569.989 C 2383.500,570.159 2345.500,570.330 2307.500,570.500 C 2307.593,572.245 2307.685,573.988 2307.778,575.733 C 2308.467,588.697 2315.575,609.079 2323.632,621.198 C 2340.499,646.569 2367.493,660.161 2401,660.153 C 2436.686,660.145 2462.149,645.169 2479.898,613.751 C 2481.994,610.040 2483.977,607.793 2485.489,607.413 C 2487.210,606.981 2493.494,609.667 2509.166,617.533 C 2520.900,623.422 2531.062,628.692 2531.750,629.243 C 2536.974,633.430 2524.737,654.295 2506.036,673.087 C 2481.996,697.243 2453.142,710.372 2416.144,713.988 C 2366.452,718.845 2322.816,704.028 2290.727,671.403 C 2275.824,656.251 2262.160,633.697 2255.542,613.326 C 2249.771,595.562 2247.913,583.238 2247.504,560 C 2247.296,548.175 2247.541,535.125 2248.049,531 ZM 2471.934,505 C 2467.675,490.319 2458.088,475.677 2446.422,466.037 C 2439.702,460.484 2427.458,454.389 2418,451.888 C 2401.258,447.462 2378.583,449.277 2360.909,456.459 C 2341.903,464.182 2324.878,480.253 2316.780,498.114 C 2313.510,505.327 2310.572,516.972 2311.729,518.129 C 2312.230,518.630 2347.449,518.901 2393.056,518.756 C 2419.871,518.671 2446.685,518.585 2473.500,518.500 C 2473.553,517.333 2473.607,516.167 2473.660,515 C 2473.748,513.075 2472.971,508.575 2471.934,505 Z" fill="#0A1A2F" stroke="none" />
  <path id="10" d="M 2899.066,603.250 C 2904.677,560.097 2935.876,531.658 2986.625,523.441 C 2994.242,522.208 3007.417,521.716 3044.250,521.291 C 3060.167,521.108 3076.083,520.924 3092,520.741 C 3091.993,519.701 3091.985,518.661 3091.978,517.621 C 3091.946,512.987 3088.536,498.516 3085.513,490.183 C 3075.567,462.769 3056.382,449.971 3025.292,450.013 C 3014.353,450.028 2999.885,452.630 2992.446,455.921 C 2980.943,461.009 2969.236,471.601 2962.928,482.626 C 2959.160,489.213 2957.688,490.388 2954.104,489.671 C 2948.255,488.501 2909.460,472.981 2908.250,471.327 C 2906.145,468.448 2906.788,466.322 2912.611,456.908 C 2931.980,425.596 2958.443,406.681 2994,398.734 C 3007.040,395.819 3042.782,395.584 3056.374,398.323 C 3104.697,408.062 3134.286,436.929 3146.895,486.638 C 3151.735,505.719 3152,512.204 3152,611.208 C 3152,702.666 3151.971,704.029 3150,706 C 3148.114,707.886 3146.667,708 3124.611,708 C 3095.535,708 3097.182,708.807 3095.954,693.968 C 3095.477,688.211 3095.068,683.388 3095.044,683.250 C 3094.814,681.928 3091.671,683.761 3088.453,687.094 C 3079.170,696.708 3060.383,707.194 3045.720,710.944 C 3015.772,718.603 2974.205,714.628 2947.979,701.596 C 2925.487,690.420 2910.718,674.186 2903.331,652.519 C 2898.581,638.585 2896.938,619.615 2899.066,603.250 ZM 3091.389,572.383 C 3089.953,572.023 3070.715,571.978 3048.639,572.284 C 3017.689,572.713 3006.468,573.215 2999.625,574.476 C 2976.673,578.706 2964.863,587.271 2959.887,603.297 C 2958.164,608.847 2957.846,611.977 2958.156,620.355 C 2958.495,629.504 2958.890,631.335 2961.805,637.255 C 2969.147,652.168 2985.392,660.581 3009,661.697 C 3042.286,663.270 3065.063,653.199 3080.685,630 C 3088.717,618.073 3093.996,598.751 3093.999,581.269 C 3094,573.229 3093.939,573.023 3091.389,572.383 Z" fill="#0A1A2F" stroke="none" />
  <path id="10" d="M 2589.222,404.557 C 2592.550,402.226 2638.095,402.238 2640.427,404.570 C 2642.435,406.577 2642.749,408.275 2643.449,420.866 C 2643.766,426.567 2644.276,431.637 2644.582,432.133 C 2644.888,432.629 2648.371,430.060 2652.320,426.424 C 2666.166,413.677 2682.755,404.173 2698.203,400.136 C 2711.797,396.584 2721.206,395.695 2738.883,396.294 C 2752.760,396.764 2757.396,397.341 2767,399.792 C 2782.095,403.645 2792.455,408.053 2803.031,415.128 C 2826.687,430.951 2842.027,456.841 2849.172,493 C 2851.429,504.421 2851.447,505.185 2851.763,604.500 C 2851.869,637.833 2851.975,671.167 2852.081,704.500 C 2851.364,705.083 2850.647,705.667 2849.930,706.250 C 2848.011,707.811 2845.118,708 2823.112,708 C 2802.895,708 2798.062,707.731 2796.321,706.512 C 2795.613,706.016 2794.905,705.521 2794.197,705.025 C 2794.035,675.604 2793.872,646.183 2793.710,616.762 C 2793.182,521.144 2792.986,517.420 2787.493,498.537 C 2782.009,479.684 2771.696,465.773 2758.605,459.568 C 2745.259,453.242 2741.431,452.521 2721.500,452.586 C 2704.621,452.641 2703.043,452.810 2696.155,455.295 C 2669.212,465.017 2653.356,487.074 2647.416,523.093 C 2645.916,532.188 2645.645,544.317 2645.264,619.253 C 2645.119,647.837 2644.974,676.423 2644.829,705.007 C 2644.117,705.506 2643.404,706.004 2642.692,706.503 C 2640.934,707.734 2636.159,708 2615.778,708 C 2592.334,708 2590.892,707.892 2589,706 C 2587.018,704.018 2587,702.667 2587,555.057 C 2587,505.409 2587,455.761 2587,406.113 C 2587.741,405.594 2588.481,405.076 2589.222,404.557 Z" fill="#0A1A2F" stroke="none" />
  <path id="10" d="M 2066.829,404.655 C 2068.430,403.206 2071.834,403 2094.174,403 C 2117.624,403 2119.824,403.148 2121.345,404.829 C 2122.738,406.368 2123.002,409.182 2123.015,422.579 C 2123.023,431.336 2123.457,439.175 2123.979,440 C 2124.756,441.229 2125.884,440.568 2130.214,436.349 C 2151.108,415.987 2184.001,402.716 2213.960,402.560 C 2225.204,402.501 2225.445,402.547 2226.696,405 C 2227.617,406.805 2227.974,413.789 2227.985,430.139 C 2227.998,450.246 2227.804,453.014 2226.250,454.882 C 2224.736,456.702 2222.817,457.112 2212,457.928 C 2187.992,459.739 2168.289,466.009 2153.372,476.583 C 2139.168,486.652 2129.940,500.359 2125.826,517.500 C 2123.720,526.276 2123.656,528.583 2123.271,610.298 C 2123.140,638.231 2123.008,666.163 2122.876,694.096 C 2122.147,693.875 2121.417,693.653 2120.688,693.432 C 2114.459,691.542 2085.686,675.063 2072.250,665.690 C 2069.833,664.004 2067.417,662.319 2065,660.633 C 2065,618.246 2065,575.858 2065,533.471 C 2065,411.549 2065.076,406.242 2066.829,404.655 Z" fill="#0A1A2F" stroke="none" />
  <path id="10" d="M 1587.085,497 C 1587.742,481.835 1589.607,474.215 1596.102,460.157 C 1603.594,443.941 1615.591,429.047 1629.728,418.415 C 1639.131,411.343 1659.497,402.075 1665.753,402.020 C 1666.504,402.013 1667.256,402.007 1668.007,402 C 1667.923,451.083 1667.837,500.167 1667.753,549.250 C 1667.669,598.333 1667.584,647.417 1667.500,696.500 C 1654.354,696.587 1641.208,696.675 1628.062,696.762 C 1601.238,696.940 1588.284,696.684 1587.562,695.962 C 1586.413,694.813 1585.999,522.063 1587.085,497 Z" fill="#0A1A2F" stroke="none" />
  <path id="10" d="M 1580.409,305.500 C 1582.358,297.634 1585.769,292.021 1592.897,284.951 C 1604.144,273.795 1613.577,270.375 1630.810,271.205 C 1639.675,271.632 1641.666,272.094 1648.384,275.284 C 1666.347,283.815 1676.016,299.594 1675.989,320.331 C 1675.955,346.378 1658.236,364.742 1631.250,366.699 C 1612.037,368.093 1594.006,358.431 1584.673,341.743 C 1579.292,332.121 1577.528,317.127 1580.409,305.500 Z" fill="#0A1A2F" stroke="none" />
</svg>
